; NON-PLATED HOLES START AT T1
; THROUGH (PLATED) HOLES START AT T100
M48
INCH
T100C0.031555
T101C0.030000
T102C0.035000
T103C0.025000
T104C0.042000
T105C0.038000
T106C0.031497
T107C0.031496
%
T100
X021222Y008222
T101
X021222Y004972
X021222Y002972
X019972Y002972
X019972Y004972
T102
X013972Y013722
X017972Y010722
X014972Y013722
X023972Y007972
X018972Y013722
X019972Y010722
X015972Y010722
X027972Y007972
X022972Y010722
X024972Y010722
X023972Y013722
X012972Y013722
X020972Y013722
X016972Y010722
X023972Y010722
X026972Y006722
X014972Y010722
X011972Y010722
X017972Y018722
X024972Y013722
X013972Y010722
X000972Y014222
X018972Y010722
X017972Y013722
X019972Y013722
X022972Y013722
X020972Y010722
X011472Y006972
X021972Y018722
X021972Y013722
X028972Y009222
X011472Y002972
X003472Y011722
X011972Y013722
X021972Y010722
X015972Y013722
X024972Y009222
X022972Y006722
X001472Y004722
X002472Y004722
X004972Y014222
X016972Y013722
X002472Y011722
X012972Y010722
T103
X029972Y003972
X029184Y003972
X028398Y003972
X027610Y003972
T104
X003472Y007472
X001472Y007472
X002472Y007472
T105
X022972Y015972
X014972Y005472
X013972Y016722
X015972Y016722
X024972Y015972
X023222Y004722
X013972Y008472
X018972Y015972
X011472Y008472
X023972Y015972
X015972Y005472
X014972Y016722
X012972Y016722
X012722Y008472
X001472Y001472
X029222Y018722
X011972Y016722
X021972Y015972
X002472Y001472
X016972Y016722
X016972Y005472
T106
X002472Y017206
X025222Y018737
X002472Y016222
X025222Y019722
T107
X019857Y006856
T00
M30
