G04 MADE WITH FRITZING*
G04 WWW.FRITZING.ORG*
G04 DOUBLE SIDED*
G04 HOLES PLATED*
G04 CONTOUR ON CENTER OF CONTOUR VECTOR*
%ASAXBY*%
%FSLAX23Y23*%
%MOIN*%
%OFA0B0*%
%SFA1.0B1.0*%
%ADD10C,0.075000*%
%ADD11C,0.078000*%
%ADD12C,0.062992*%
%ADD13C,0.082000*%
%ADD14C,0.070925*%
%ADD15C,0.070866*%
%ADD16C,0.070000*%
%ADD17C,0.065000*%
%ADD18R,0.075000X0.075000*%
%ADD19R,0.078000X0.078000*%
%ADD20R,0.062992X0.062992*%
%ADD21R,0.082000X0.082000*%
%ADD22C,0.024000*%
%ADD23R,0.001000X0.001000*%
%LNCOPPER1*%
G90*
G70*
G54D10*
X1197Y1072D03*
X1197Y1372D03*
X1297Y1072D03*
X1297Y1372D03*
X1397Y1072D03*
X1397Y1372D03*
X1497Y1072D03*
X1497Y1372D03*
X1597Y1072D03*
X1597Y1372D03*
X1697Y1072D03*
X1697Y1372D03*
X1797Y1072D03*
X1797Y1372D03*
X1897Y1072D03*
X1897Y1372D03*
X1997Y1072D03*
X1997Y1372D03*
X2097Y1072D03*
X2097Y1372D03*
X2197Y1072D03*
X2197Y1372D03*
X2297Y1072D03*
X2297Y1372D03*
X2397Y1072D03*
X2397Y1372D03*
X2497Y1072D03*
X2497Y1372D03*
G54D11*
X247Y147D03*
X147Y147D03*
G54D10*
X247Y472D03*
X147Y472D03*
X247Y1172D03*
X347Y1172D03*
X97Y1422D03*
X497Y1422D03*
G54D12*
X247Y1622D03*
X247Y1721D03*
G54D13*
X147Y747D03*
X247Y747D03*
X347Y747D03*
G54D11*
X1147Y847D03*
G54D10*
X1147Y697D03*
X1147Y297D03*
G54D11*
X1272Y847D03*
X1397Y847D03*
X1497Y547D03*
X1597Y547D03*
X1697Y547D03*
G54D14*
X2122Y822D03*
G54D15*
X1986Y686D03*
G54D16*
X1997Y297D03*
X1997Y497D03*
X2122Y297D03*
X2122Y497D03*
G54D17*
X2761Y397D03*
X2840Y397D03*
X2918Y397D03*
X2997Y397D03*
G54D10*
X2497Y922D03*
X2897Y922D03*
X2397Y797D03*
X2797Y797D03*
X2297Y672D03*
X2697Y672D03*
G54D11*
X2322Y472D03*
X1197Y1672D03*
X1297Y1672D03*
X1397Y1672D03*
X1497Y1672D03*
X1597Y1672D03*
X1697Y1672D03*
G54D10*
X1797Y1872D03*
X2197Y1872D03*
G54D12*
X2522Y1972D03*
X2522Y1874D03*
G54D11*
X1897Y1597D03*
X2197Y1597D03*
X2297Y1597D03*
X2397Y1597D03*
X2497Y1597D03*
X2922Y1872D03*
G54D18*
X1197Y1072D03*
G54D19*
X247Y147D03*
G54D18*
X247Y472D03*
X247Y1172D03*
G54D20*
X247Y1622D03*
G54D21*
X147Y747D03*
G54D20*
X2522Y1972D03*
G54D22*
X147Y444D02*
X147Y177D01*
D02*
X147Y715D02*
X147Y501D01*
D02*
X347Y1144D02*
X347Y779D01*
D02*
X483Y1398D02*
X362Y1197D01*
D02*
X220Y1721D02*
X99Y1721D01*
D02*
X99Y1721D02*
X97Y1451D01*
D02*
X1154Y877D02*
X1191Y1044D01*
D02*
X1147Y726D02*
X1147Y817D01*
D02*
X532Y1175D02*
X376Y1173D01*
D02*
X522Y295D02*
X532Y1175D01*
D02*
X1119Y297D02*
X522Y295D01*
D02*
X1276Y877D02*
X1294Y1044D01*
D02*
X1397Y877D02*
X1397Y1044D01*
D02*
X1796Y295D02*
X1797Y1044D01*
D02*
X1176Y297D02*
X1796Y295D01*
D02*
X1497Y771D02*
X1497Y1044D01*
D02*
X1497Y577D02*
X1497Y771D01*
D02*
X1597Y577D02*
X1597Y1044D01*
D02*
X1697Y577D02*
X1697Y1044D01*
D02*
X2497Y951D02*
X2497Y1044D01*
D02*
X2397Y826D02*
X2397Y1044D01*
D02*
X2297Y701D02*
X2297Y1044D01*
D02*
X2993Y420D02*
X2903Y894D01*
D02*
X2912Y420D02*
X2806Y770D01*
D02*
X2756Y420D02*
X2704Y644D01*
D02*
X2221Y572D02*
X2199Y1044D01*
D02*
X2301Y493D02*
X2221Y572D01*
D02*
X1197Y1642D02*
X1197Y1401D01*
D02*
X1297Y1642D02*
X1297Y1401D01*
D02*
X1397Y1642D02*
X1397Y1401D01*
D02*
X1497Y1642D02*
X1497Y1401D01*
D02*
X1597Y1642D02*
X1597Y1401D01*
D02*
X1697Y1642D02*
X1697Y1401D01*
D02*
X896Y1171D02*
X896Y1646D01*
D02*
X896Y1998D02*
X1997Y1998D01*
D02*
X896Y1646D02*
X896Y1998D01*
D02*
X1997Y1998D02*
X1997Y1401D01*
D02*
X532Y1175D02*
X896Y1171D01*
D02*
X2098Y1774D02*
X2097Y1401D01*
D02*
X2522Y1847D02*
X2523Y1774D01*
D02*
X2523Y1774D02*
X2098Y1774D01*
D02*
X1897Y1401D02*
X1897Y1567D01*
D02*
X2197Y1567D02*
X2197Y1401D01*
D02*
X2297Y1567D02*
X2297Y1401D01*
D02*
X2397Y1401D02*
X2397Y1567D01*
D02*
X2497Y1567D02*
X2497Y1401D01*
D02*
X2892Y1872D02*
X2549Y1874D01*
G54D23*
X121Y2126D02*
X121Y2126D01*
X161Y2126D02*
X161Y2126D01*
X189Y2126D02*
X237Y2126D01*
X405Y2126D02*
X416Y2126D01*
X442Y2126D02*
X453Y2126D01*
X118Y2125D02*
X123Y2125D01*
X158Y2125D02*
X163Y2125D01*
X188Y2125D02*
X237Y2125D01*
X404Y2125D02*
X417Y2125D01*
X441Y2125D02*
X453Y2125D01*
X117Y2124D02*
X124Y2124D01*
X157Y2124D02*
X164Y2124D01*
X188Y2124D02*
X237Y2124D01*
X404Y2124D02*
X417Y2124D01*
X440Y2124D02*
X453Y2124D01*
X117Y2123D02*
X125Y2123D01*
X156Y2123D02*
X165Y2123D01*
X188Y2123D02*
X237Y2123D01*
X404Y2123D02*
X418Y2123D01*
X439Y2123D02*
X453Y2123D01*
X117Y2122D02*
X125Y2122D01*
X154Y2122D02*
X165Y2122D01*
X188Y2122D02*
X237Y2122D01*
X404Y2122D02*
X419Y2122D01*
X439Y2122D02*
X453Y2122D01*
X116Y2121D02*
X125Y2121D01*
X153Y2121D02*
X165Y2121D01*
X188Y2121D02*
X237Y2121D01*
X404Y2121D02*
X420Y2121D01*
X438Y2121D02*
X453Y2121D01*
X116Y2120D02*
X125Y2120D01*
X152Y2120D02*
X165Y2120D01*
X188Y2120D02*
X237Y2120D01*
X404Y2120D02*
X420Y2120D01*
X437Y2120D02*
X453Y2120D01*
X116Y2119D02*
X125Y2119D01*
X151Y2119D02*
X165Y2119D01*
X188Y2119D02*
X237Y2119D01*
X404Y2119D02*
X421Y2119D01*
X437Y2119D02*
X453Y2119D01*
X116Y2118D02*
X125Y2118D01*
X150Y2118D02*
X164Y2118D01*
X188Y2118D02*
X237Y2118D01*
X404Y2118D02*
X422Y2118D01*
X436Y2118D02*
X453Y2118D01*
X116Y2117D02*
X125Y2117D01*
X149Y2117D02*
X163Y2117D01*
X188Y2117D02*
X237Y2117D01*
X404Y2117D02*
X422Y2117D01*
X435Y2117D02*
X453Y2117D01*
X116Y2116D02*
X125Y2116D01*
X147Y2116D02*
X162Y2116D01*
X188Y2116D02*
X237Y2116D01*
X404Y2116D02*
X423Y2116D01*
X434Y2116D02*
X453Y2116D01*
X116Y2115D02*
X125Y2115D01*
X146Y2115D02*
X161Y2115D01*
X188Y2115D02*
X197Y2115D01*
X208Y2115D02*
X217Y2115D01*
X228Y2115D02*
X237Y2115D01*
X404Y2115D02*
X424Y2115D01*
X434Y2115D02*
X453Y2115D01*
X116Y2114D02*
X125Y2114D01*
X145Y2114D02*
X160Y2114D01*
X188Y2114D02*
X197Y2114D01*
X208Y2114D02*
X217Y2114D01*
X228Y2114D02*
X237Y2114D01*
X404Y2114D02*
X424Y2114D01*
X433Y2114D02*
X453Y2114D01*
X116Y2113D02*
X125Y2113D01*
X144Y2113D02*
X158Y2113D01*
X188Y2113D02*
X197Y2113D01*
X208Y2113D02*
X217Y2113D01*
X228Y2113D02*
X237Y2113D01*
X404Y2113D02*
X425Y2113D01*
X432Y2113D02*
X453Y2113D01*
X116Y2112D02*
X125Y2112D01*
X143Y2112D02*
X157Y2112D01*
X188Y2112D02*
X197Y2112D01*
X208Y2112D02*
X217Y2112D01*
X228Y2112D02*
X237Y2112D01*
X404Y2112D02*
X426Y2112D01*
X432Y2112D02*
X453Y2112D01*
X116Y2111D02*
X125Y2111D01*
X142Y2111D02*
X156Y2111D01*
X189Y2111D02*
X197Y2111D01*
X208Y2111D02*
X217Y2111D01*
X228Y2111D02*
X237Y2111D01*
X404Y2111D02*
X413Y2111D01*
X415Y2111D02*
X427Y2111D01*
X431Y2111D02*
X442Y2111D01*
X444Y2111D02*
X453Y2111D01*
X116Y2110D02*
X125Y2110D01*
X140Y2110D02*
X155Y2110D01*
X189Y2110D02*
X197Y2110D01*
X208Y2110D02*
X217Y2110D01*
X229Y2110D02*
X236Y2110D01*
X404Y2110D02*
X413Y2110D01*
X416Y2110D02*
X427Y2110D01*
X430Y2110D02*
X442Y2110D01*
X444Y2110D02*
X453Y2110D01*
X116Y2109D02*
X125Y2109D01*
X139Y2109D02*
X154Y2109D01*
X190Y2109D02*
X196Y2109D01*
X208Y2109D02*
X217Y2109D01*
X230Y2109D02*
X236Y2109D01*
X404Y2109D02*
X413Y2109D01*
X417Y2109D02*
X441Y2109D01*
X444Y2109D02*
X453Y2109D01*
X116Y2108D02*
X125Y2108D01*
X138Y2108D02*
X153Y2108D01*
X191Y2108D02*
X194Y2108D01*
X208Y2108D02*
X217Y2108D01*
X231Y2108D02*
X234Y2108D01*
X404Y2108D02*
X413Y2108D01*
X417Y2108D02*
X440Y2108D01*
X444Y2108D02*
X453Y2108D01*
X116Y2107D02*
X125Y2107D01*
X137Y2107D02*
X151Y2107D01*
X208Y2107D02*
X217Y2107D01*
X404Y2107D02*
X413Y2107D01*
X418Y2107D02*
X439Y2107D01*
X444Y2107D02*
X453Y2107D01*
X116Y2106D02*
X125Y2106D01*
X136Y2106D02*
X150Y2106D01*
X208Y2106D02*
X217Y2106D01*
X404Y2106D02*
X413Y2106D01*
X419Y2106D02*
X439Y2106D01*
X444Y2106D02*
X453Y2106D01*
X116Y2105D02*
X125Y2105D01*
X135Y2105D02*
X149Y2105D01*
X208Y2105D02*
X217Y2105D01*
X404Y2105D02*
X413Y2105D01*
X419Y2105D02*
X438Y2105D01*
X444Y2105D02*
X453Y2105D01*
X116Y2104D02*
X125Y2104D01*
X133Y2104D02*
X148Y2104D01*
X208Y2104D02*
X217Y2104D01*
X274Y2104D02*
X296Y2104D01*
X335Y2104D02*
X339Y2104D01*
X354Y2104D02*
X371Y2104D01*
X404Y2104D02*
X413Y2104D01*
X420Y2104D02*
X437Y2104D01*
X444Y2104D02*
X453Y2104D01*
X116Y2103D02*
X125Y2103D01*
X132Y2103D02*
X147Y2103D01*
X208Y2103D02*
X217Y2103D01*
X272Y2103D02*
X298Y2103D01*
X334Y2103D02*
X340Y2103D01*
X353Y2103D02*
X373Y2103D01*
X404Y2103D02*
X413Y2103D01*
X421Y2103D02*
X437Y2103D01*
X444Y2103D02*
X453Y2103D01*
X116Y2102D02*
X125Y2102D01*
X131Y2102D02*
X146Y2102D01*
X208Y2102D02*
X217Y2102D01*
X270Y2102D02*
X299Y2102D01*
X333Y2102D02*
X341Y2102D01*
X352Y2102D02*
X375Y2102D01*
X404Y2102D02*
X413Y2102D01*
X421Y2102D02*
X436Y2102D01*
X444Y2102D02*
X453Y2102D01*
X116Y2101D02*
X125Y2101D01*
X130Y2101D02*
X144Y2101D01*
X208Y2101D02*
X217Y2101D01*
X269Y2101D02*
X301Y2101D01*
X333Y2101D02*
X341Y2101D01*
X351Y2101D02*
X376Y2101D01*
X404Y2101D02*
X413Y2101D01*
X422Y2101D02*
X435Y2101D01*
X444Y2101D02*
X453Y2101D01*
X116Y2100D02*
X125Y2100D01*
X129Y2100D02*
X143Y2100D01*
X208Y2100D02*
X217Y2100D01*
X268Y2100D02*
X302Y2100D01*
X332Y2100D02*
X341Y2100D01*
X350Y2100D02*
X377Y2100D01*
X404Y2100D02*
X413Y2100D01*
X423Y2100D02*
X435Y2100D01*
X444Y2100D02*
X453Y2100D01*
X116Y2099D02*
X125Y2099D01*
X128Y2099D02*
X142Y2099D01*
X208Y2099D02*
X217Y2099D01*
X267Y2099D02*
X303Y2099D01*
X332Y2099D02*
X341Y2099D01*
X348Y2099D02*
X378Y2099D01*
X404Y2099D02*
X413Y2099D01*
X424Y2099D02*
X434Y2099D01*
X444Y2099D02*
X453Y2099D01*
X116Y2098D02*
X141Y2098D01*
X208Y2098D02*
X217Y2098D01*
X265Y2098D02*
X304Y2098D01*
X332Y2098D02*
X341Y2098D01*
X347Y2098D02*
X379Y2098D01*
X404Y2098D02*
X413Y2098D01*
X424Y2098D02*
X433Y2098D01*
X444Y2098D02*
X453Y2098D01*
X116Y2097D02*
X140Y2097D01*
X208Y2097D02*
X217Y2097D01*
X264Y2097D02*
X305Y2097D01*
X332Y2097D02*
X341Y2097D01*
X346Y2097D02*
X379Y2097D01*
X404Y2097D02*
X413Y2097D01*
X424Y2097D02*
X433Y2097D01*
X444Y2097D02*
X453Y2097D01*
X116Y2096D02*
X139Y2096D01*
X208Y2096D02*
X217Y2096D01*
X264Y2096D02*
X306Y2096D01*
X332Y2096D02*
X341Y2096D01*
X345Y2096D02*
X380Y2096D01*
X404Y2096D02*
X413Y2096D01*
X424Y2096D02*
X433Y2096D01*
X444Y2096D02*
X453Y2096D01*
X116Y2095D02*
X137Y2095D01*
X208Y2095D02*
X217Y2095D01*
X263Y2095D02*
X307Y2095D01*
X332Y2095D02*
X341Y2095D01*
X344Y2095D02*
X380Y2095D01*
X404Y2095D02*
X413Y2095D01*
X424Y2095D02*
X433Y2095D01*
X444Y2095D02*
X453Y2095D01*
X116Y2094D02*
X136Y2094D01*
X208Y2094D02*
X217Y2094D01*
X262Y2094D02*
X275Y2094D01*
X294Y2094D02*
X307Y2094D01*
X332Y2094D02*
X357Y2094D01*
X370Y2094D02*
X381Y2094D01*
X404Y2094D02*
X413Y2094D01*
X424Y2094D02*
X433Y2094D01*
X444Y2094D02*
X453Y2094D01*
X116Y2093D02*
X135Y2093D01*
X208Y2093D02*
X217Y2093D01*
X262Y2093D02*
X274Y2093D01*
X296Y2093D02*
X308Y2093D01*
X332Y2093D02*
X356Y2093D01*
X371Y2093D02*
X381Y2093D01*
X404Y2093D02*
X413Y2093D01*
X425Y2093D02*
X432Y2093D01*
X444Y2093D02*
X453Y2093D01*
X116Y2092D02*
X134Y2092D01*
X208Y2092D02*
X217Y2092D01*
X261Y2092D02*
X273Y2092D01*
X297Y2092D02*
X308Y2092D01*
X332Y2092D02*
X355Y2092D01*
X371Y2092D02*
X381Y2092D01*
X404Y2092D02*
X413Y2092D01*
X426Y2092D02*
X432Y2092D01*
X444Y2092D02*
X453Y2092D01*
X116Y2091D02*
X133Y2091D01*
X208Y2091D02*
X217Y2091D01*
X261Y2091D02*
X272Y2091D01*
X298Y2091D02*
X309Y2091D01*
X332Y2091D02*
X354Y2091D01*
X372Y2091D02*
X381Y2091D01*
X404Y2091D02*
X413Y2091D01*
X427Y2091D02*
X430Y2091D01*
X444Y2091D02*
X453Y2091D01*
X116Y2090D02*
X132Y2090D01*
X208Y2090D02*
X217Y2090D01*
X261Y2090D02*
X271Y2090D01*
X299Y2090D02*
X309Y2090D01*
X332Y2090D02*
X353Y2090D01*
X372Y2090D02*
X381Y2090D01*
X404Y2090D02*
X413Y2090D01*
X444Y2090D02*
X453Y2090D01*
X116Y2089D02*
X130Y2089D01*
X208Y2089D02*
X217Y2089D01*
X261Y2089D02*
X270Y2089D01*
X299Y2089D02*
X309Y2089D01*
X332Y2089D02*
X351Y2089D01*
X372Y2089D02*
X381Y2089D01*
X404Y2089D02*
X413Y2089D01*
X444Y2089D02*
X453Y2089D01*
X116Y2088D02*
X129Y2088D01*
X208Y2088D02*
X217Y2088D01*
X261Y2088D02*
X270Y2088D01*
X300Y2088D02*
X309Y2088D01*
X332Y2088D02*
X350Y2088D01*
X372Y2088D02*
X381Y2088D01*
X404Y2088D02*
X413Y2088D01*
X444Y2088D02*
X453Y2088D01*
X116Y2087D02*
X128Y2087D01*
X208Y2087D02*
X217Y2087D01*
X260Y2087D02*
X269Y2087D01*
X300Y2087D02*
X309Y2087D01*
X332Y2087D02*
X349Y2087D01*
X372Y2087D02*
X381Y2087D01*
X404Y2087D02*
X413Y2087D01*
X444Y2087D02*
X453Y2087D01*
X116Y2086D02*
X129Y2086D01*
X208Y2086D02*
X217Y2086D01*
X260Y2086D02*
X269Y2086D01*
X300Y2086D02*
X309Y2086D01*
X332Y2086D02*
X348Y2086D01*
X372Y2086D02*
X381Y2086D01*
X404Y2086D02*
X413Y2086D01*
X444Y2086D02*
X453Y2086D01*
X116Y2085D02*
X131Y2085D01*
X208Y2085D02*
X217Y2085D01*
X260Y2085D02*
X269Y2085D01*
X300Y2085D02*
X309Y2085D01*
X332Y2085D02*
X347Y2085D01*
X373Y2085D02*
X381Y2085D01*
X404Y2085D02*
X413Y2085D01*
X444Y2085D02*
X453Y2085D01*
X116Y2084D02*
X132Y2084D01*
X208Y2084D02*
X217Y2084D01*
X260Y2084D02*
X269Y2084D01*
X300Y2084D02*
X309Y2084D01*
X332Y2084D02*
X346Y2084D01*
X373Y2084D02*
X380Y2084D01*
X404Y2084D02*
X413Y2084D01*
X444Y2084D02*
X453Y2084D01*
X116Y2083D02*
X133Y2083D01*
X208Y2083D02*
X217Y2083D01*
X260Y2083D02*
X269Y2083D01*
X300Y2083D02*
X309Y2083D01*
X332Y2083D02*
X344Y2083D01*
X374Y2083D02*
X379Y2083D01*
X404Y2083D02*
X413Y2083D01*
X444Y2083D02*
X453Y2083D01*
X116Y2082D02*
X134Y2082D01*
X208Y2082D02*
X217Y2082D01*
X260Y2082D02*
X269Y2082D01*
X300Y2082D02*
X309Y2082D01*
X332Y2082D02*
X343Y2082D01*
X404Y2082D02*
X413Y2082D01*
X444Y2082D02*
X453Y2082D01*
X116Y2081D02*
X135Y2081D01*
X208Y2081D02*
X217Y2081D01*
X260Y2081D02*
X269Y2081D01*
X300Y2081D02*
X309Y2081D01*
X332Y2081D02*
X342Y2081D01*
X404Y2081D02*
X413Y2081D01*
X444Y2081D02*
X453Y2081D01*
X116Y2080D02*
X136Y2080D01*
X208Y2080D02*
X217Y2080D01*
X260Y2080D02*
X269Y2080D01*
X300Y2080D02*
X309Y2080D01*
X332Y2080D02*
X341Y2080D01*
X404Y2080D02*
X413Y2080D01*
X444Y2080D02*
X453Y2080D01*
X116Y2079D02*
X138Y2079D01*
X208Y2079D02*
X217Y2079D01*
X260Y2079D02*
X309Y2079D01*
X332Y2079D02*
X341Y2079D01*
X404Y2079D02*
X413Y2079D01*
X444Y2079D02*
X453Y2079D01*
X116Y2078D02*
X139Y2078D01*
X208Y2078D02*
X217Y2078D01*
X260Y2078D02*
X309Y2078D01*
X332Y2078D02*
X341Y2078D01*
X404Y2078D02*
X413Y2078D01*
X444Y2078D02*
X453Y2078D01*
X116Y2077D02*
X140Y2077D01*
X208Y2077D02*
X217Y2077D01*
X260Y2077D02*
X309Y2077D01*
X332Y2077D02*
X341Y2077D01*
X404Y2077D02*
X413Y2077D01*
X444Y2077D02*
X453Y2077D01*
X116Y2076D02*
X141Y2076D01*
X208Y2076D02*
X217Y2076D01*
X260Y2076D02*
X309Y2076D01*
X332Y2076D02*
X341Y2076D01*
X404Y2076D02*
X413Y2076D01*
X444Y2076D02*
X453Y2076D01*
X116Y2075D02*
X125Y2075D01*
X128Y2075D02*
X142Y2075D01*
X208Y2075D02*
X217Y2075D01*
X260Y2075D02*
X309Y2075D01*
X332Y2075D02*
X341Y2075D01*
X404Y2075D02*
X413Y2075D01*
X444Y2075D02*
X453Y2075D01*
X116Y2074D02*
X125Y2074D01*
X129Y2074D02*
X143Y2074D01*
X208Y2074D02*
X217Y2074D01*
X260Y2074D02*
X309Y2074D01*
X332Y2074D02*
X341Y2074D01*
X404Y2074D02*
X413Y2074D01*
X444Y2074D02*
X453Y2074D01*
X116Y2073D02*
X125Y2073D01*
X130Y2073D02*
X145Y2073D01*
X208Y2073D02*
X217Y2073D01*
X260Y2073D02*
X309Y2073D01*
X332Y2073D02*
X341Y2073D01*
X404Y2073D02*
X413Y2073D01*
X444Y2073D02*
X453Y2073D01*
X116Y2072D02*
X125Y2072D01*
X131Y2072D02*
X146Y2072D01*
X208Y2072D02*
X217Y2072D01*
X260Y2072D02*
X308Y2072D01*
X332Y2072D02*
X341Y2072D01*
X404Y2072D02*
X413Y2072D01*
X444Y2072D02*
X453Y2072D01*
X116Y2071D02*
X125Y2071D01*
X132Y2071D02*
X147Y2071D01*
X208Y2071D02*
X217Y2071D01*
X260Y2071D02*
X308Y2071D01*
X332Y2071D02*
X341Y2071D01*
X404Y2071D02*
X413Y2071D01*
X444Y2071D02*
X453Y2071D01*
X116Y2070D02*
X125Y2070D01*
X134Y2070D02*
X148Y2070D01*
X208Y2070D02*
X217Y2070D01*
X260Y2070D02*
X307Y2070D01*
X332Y2070D02*
X341Y2070D01*
X404Y2070D02*
X413Y2070D01*
X444Y2070D02*
X453Y2070D01*
X116Y2069D02*
X125Y2069D01*
X135Y2069D02*
X149Y2069D01*
X208Y2069D02*
X217Y2069D01*
X260Y2069D02*
X270Y2069D01*
X332Y2069D02*
X341Y2069D01*
X404Y2069D02*
X413Y2069D01*
X444Y2069D02*
X453Y2069D01*
X116Y2068D02*
X125Y2068D01*
X136Y2068D02*
X151Y2068D01*
X208Y2068D02*
X217Y2068D01*
X260Y2068D02*
X269Y2068D01*
X332Y2068D02*
X341Y2068D01*
X404Y2068D02*
X413Y2068D01*
X444Y2068D02*
X453Y2068D01*
X116Y2067D02*
X125Y2067D01*
X137Y2067D02*
X152Y2067D01*
X208Y2067D02*
X217Y2067D01*
X260Y2067D02*
X269Y2067D01*
X332Y2067D02*
X341Y2067D01*
X404Y2067D02*
X413Y2067D01*
X444Y2067D02*
X453Y2067D01*
X116Y2066D02*
X125Y2066D01*
X138Y2066D02*
X153Y2066D01*
X208Y2066D02*
X217Y2066D01*
X260Y2066D02*
X270Y2066D01*
X332Y2066D02*
X341Y2066D01*
X404Y2066D02*
X413Y2066D01*
X444Y2066D02*
X453Y2066D01*
X116Y2065D02*
X125Y2065D01*
X139Y2065D02*
X154Y2065D01*
X208Y2065D02*
X217Y2065D01*
X260Y2065D02*
X270Y2065D01*
X332Y2065D02*
X341Y2065D01*
X404Y2065D02*
X413Y2065D01*
X444Y2065D02*
X453Y2065D01*
X116Y2064D02*
X125Y2064D01*
X141Y2064D02*
X155Y2064D01*
X208Y2064D02*
X217Y2064D01*
X261Y2064D02*
X270Y2064D01*
X332Y2064D02*
X341Y2064D01*
X404Y2064D02*
X413Y2064D01*
X444Y2064D02*
X453Y2064D01*
X116Y2063D02*
X125Y2063D01*
X142Y2063D02*
X156Y2063D01*
X208Y2063D02*
X217Y2063D01*
X261Y2063D02*
X271Y2063D01*
X332Y2063D02*
X341Y2063D01*
X404Y2063D02*
X413Y2063D01*
X444Y2063D02*
X453Y2063D01*
X116Y2062D02*
X125Y2062D01*
X143Y2062D02*
X158Y2062D01*
X208Y2062D02*
X217Y2062D01*
X261Y2062D02*
X272Y2062D01*
X332Y2062D02*
X341Y2062D01*
X404Y2062D02*
X413Y2062D01*
X444Y2062D02*
X453Y2062D01*
X116Y2061D02*
X125Y2061D01*
X144Y2061D02*
X159Y2061D01*
X208Y2061D02*
X217Y2061D01*
X261Y2061D02*
X273Y2061D01*
X332Y2061D02*
X341Y2061D01*
X404Y2061D02*
X413Y2061D01*
X444Y2061D02*
X453Y2061D01*
X116Y2060D02*
X125Y2060D01*
X145Y2060D02*
X160Y2060D01*
X208Y2060D02*
X217Y2060D01*
X262Y2060D02*
X274Y2060D01*
X332Y2060D02*
X341Y2060D01*
X404Y2060D02*
X413Y2060D01*
X444Y2060D02*
X453Y2060D01*
X116Y2059D02*
X125Y2059D01*
X146Y2059D02*
X161Y2059D01*
X208Y2059D02*
X217Y2059D01*
X262Y2059D02*
X275Y2059D01*
X332Y2059D02*
X341Y2059D01*
X404Y2059D02*
X413Y2059D01*
X444Y2059D02*
X453Y2059D01*
X116Y2058D02*
X125Y2058D01*
X148Y2058D02*
X162Y2058D01*
X208Y2058D02*
X217Y2058D01*
X263Y2058D02*
X305Y2058D01*
X332Y2058D02*
X341Y2058D01*
X404Y2058D02*
X413Y2058D01*
X444Y2058D02*
X453Y2058D01*
X116Y2057D02*
X125Y2057D01*
X149Y2057D02*
X163Y2057D01*
X208Y2057D02*
X217Y2057D01*
X263Y2057D02*
X307Y2057D01*
X332Y2057D02*
X341Y2057D01*
X404Y2057D02*
X413Y2057D01*
X444Y2057D02*
X453Y2057D01*
X116Y2056D02*
X125Y2056D01*
X150Y2056D02*
X164Y2056D01*
X208Y2056D02*
X217Y2056D01*
X264Y2056D02*
X308Y2056D01*
X332Y2056D02*
X341Y2056D01*
X404Y2056D02*
X413Y2056D01*
X444Y2056D02*
X453Y2056D01*
X116Y2055D02*
X125Y2055D01*
X151Y2055D02*
X165Y2055D01*
X208Y2055D02*
X217Y2055D01*
X265Y2055D02*
X309Y2055D01*
X332Y2055D02*
X341Y2055D01*
X404Y2055D02*
X413Y2055D01*
X444Y2055D02*
X453Y2055D01*
X116Y2054D02*
X125Y2054D01*
X152Y2054D02*
X165Y2054D01*
X208Y2054D02*
X217Y2054D01*
X266Y2054D02*
X309Y2054D01*
X332Y2054D02*
X341Y2054D01*
X404Y2054D02*
X413Y2054D01*
X444Y2054D02*
X453Y2054D01*
X116Y2053D02*
X125Y2053D01*
X153Y2053D02*
X165Y2053D01*
X208Y2053D02*
X217Y2053D01*
X268Y2053D02*
X309Y2053D01*
X332Y2053D02*
X341Y2053D01*
X404Y2053D02*
X413Y2053D01*
X444Y2053D02*
X453Y2053D01*
X117Y2052D02*
X125Y2052D01*
X155Y2052D02*
X165Y2052D01*
X208Y2052D02*
X217Y2052D01*
X269Y2052D02*
X309Y2052D01*
X333Y2052D02*
X341Y2052D01*
X405Y2052D02*
X413Y2052D01*
X444Y2052D02*
X453Y2052D01*
X117Y2051D02*
X125Y2051D01*
X156Y2051D02*
X165Y2051D01*
X209Y2051D02*
X217Y2051D01*
X270Y2051D02*
X309Y2051D01*
X333Y2051D02*
X341Y2051D01*
X405Y2051D02*
X413Y2051D01*
X445Y2051D02*
X453Y2051D01*
X118Y2050D02*
X124Y2050D01*
X157Y2050D02*
X164Y2050D01*
X209Y2050D02*
X216Y2050D01*
X272Y2050D02*
X308Y2050D01*
X334Y2050D02*
X340Y2050D01*
X406Y2050D02*
X412Y2050D01*
X445Y2050D02*
X452Y2050D01*
X119Y2049D02*
X123Y2049D01*
X158Y2049D02*
X163Y2049D01*
X211Y2049D02*
X215Y2049D01*
X274Y2049D02*
X307Y2049D01*
X335Y2049D02*
X339Y2049D01*
X407Y2049D02*
X411Y2049D01*
X446Y2049D02*
X451Y2049D01*
D02*
G04 End of Copper1*
M02*